<svg width="341" height="41" viewBox="0 0 341 41" fill="none" xmlns="http://www.w3.org/2000/svg">
<path d="M11.6 22.84L8.64 26V33H0.8V5H8.64V16.64L19.48 5H28.2L16.76 17.4L28.8 33H19.6L11.6 22.84ZM51.8188 22.2C51.8188 22.2533 51.7788 22.88 51.6988 24.08H35.9388C36.2588 25.2 36.8721 26.0667 37.7787 26.68C38.7121 27.2667 39.8721 27.56 41.2588 27.56C42.2988 27.56 43.1921 27.4133 43.9388 27.12C44.7121 26.8267 45.4854 26.3467 46.2588 25.68L50.2588 29.84C48.1521 32.1867 45.0721 33.36 41.0188 33.36C38.4854 33.36 36.2588 32.88 34.3388 31.92C32.4188 30.96 30.9254 29.6267 29.8587 27.92C28.8188 26.2133 28.2988 24.28 28.2988 22.12C28.2988 19.9867 28.8054 18.08 29.8188 16.4C30.8588 14.6933 32.2854 13.36 34.0988 12.4C35.9121 11.44 37.9521 10.96 40.2188 10.96C42.3788 10.96 44.3388 11.4133 46.0988 12.32C47.8588 13.2 49.2454 14.4933 50.2588 16.2C51.2988 17.88 51.8188 19.88 51.8188 22.2ZM40.2588 16.36C39.0854 16.36 38.0988 16.6933 37.2988 17.36C36.5254 18.0267 36.0321 18.9333 35.8188 20.08H44.6988C44.4854 18.9333 43.9788 18.0267 43.1788 17.36C42.4054 16.6933 41.4321 16.36 40.2588 16.36ZM69.4428 10.96C72.1361 10.96 74.2961 11.76 75.9228 13.36C77.5761 14.96 78.4028 17.3733 78.4028 20.6V33H70.8028V21.84C70.8028 18.88 69.6161 17.4 67.2428 17.4C65.9361 17.4 64.8828 17.8267 64.0828 18.68C63.3095 19.5333 62.9228 20.8133 62.9228 22.52V33H55.3228V11.32H62.5628V13.68C63.4161 12.8 64.4295 12.1333 65.6028 11.68C66.7761 11.2 68.0561 10.96 69.4428 10.96ZM102.054 27.32V33H82.0544V28.52L92.0944 16.96H82.3344V11.32H101.654V15.76L91.6144 27.32H102.054ZM105.401 11.32H113.001V33H105.401V11.32ZM109.201 8.92C107.814 8.92 106.694 8.53333 105.841 7.76C104.988 6.98667 104.561 6.02667 104.561 4.88C104.561 3.73333 104.988 2.77333 105.841 2C106.694 1.22667 107.814 0.839999 109.201 0.839999C110.588 0.839999 111.708 1.21333 112.561 1.96C113.414 2.68 113.841 3.61333 113.841 4.76C113.841 5.96 113.414 6.96 112.561 7.76C111.708 8.53333 110.588 8.92 109.201 8.92ZM140.1 22.2C140.1 22.2533 140.06 22.88 139.98 24.08H124.22C124.54 25.2 125.153 26.0667 126.06 26.68C126.993 27.2667 128.153 27.56 129.54 27.56C130.58 27.56 131.473 27.4133 132.22 27.12C132.993 26.8267 133.767 26.3467 134.54 25.68L138.54 29.84C136.433 32.1867 133.353 33.36 129.3 33.36C126.767 33.36 124.54 32.88 122.62 31.92C120.7 30.96 119.207 29.6267 118.14 27.92C117.1 26.2133 116.58 24.28 116.58 22.12C116.58 19.9867 117.087 18.08 118.1 16.4C119.14 14.6933 120.567 13.36 122.38 12.4C124.193 11.44 126.233 10.96 128.5 10.96C130.66 10.96 132.62 11.4133 134.38 12.32C136.14 13.2 137.527 14.4933 138.54 16.2C139.58 17.88 140.1 19.88 140.1 22.2ZM128.54 16.36C127.367 16.36 126.38 16.6933 125.58 17.36C124.807 18.0267 124.313 18.9333 124.1 20.08H132.98C132.767 18.9333 132.26 18.0267 131.46 17.36C130.687 16.6933 129.713 16.36 128.54 16.36ZM199.212 5L190.132 33H181.652L176.292 15.96L170.692 33H162.212L153.132 5H161.292L166.932 22.88L172.852 5H180.132L185.772 23.04L191.652 5H199.212ZM209.328 10.96C212.928 10.96 215.675 11.7867 217.568 13.44C219.462 15.0667 220.408 17.5733 220.408 20.96V33H213.328V30.2C212.235 32.3067 210.102 33.36 206.928 33.36C205.248 33.36 203.795 33.0667 202.568 32.48C201.342 31.8933 200.408 31.1067 199.768 30.12C199.155 29.1067 198.848 27.96 198.848 26.68C198.848 24.6267 199.635 23.04 201.208 21.92C202.782 20.7733 205.208 20.2 208.488 20.2H212.808C212.675 17.9067 211.142 16.76 208.208 16.76C207.168 16.76 206.115 16.9333 205.048 17.28C203.982 17.6 203.075 18.0533 202.328 18.64L199.768 13.48C200.968 12.68 202.422 12.0667 204.128 11.64C205.862 11.1867 207.595 10.96 209.328 10.96ZM209.048 28.56C209.928 28.56 210.702 28.3467 211.368 27.92C212.035 27.4933 212.515 26.8667 212.808 26.04V24.16H209.528C207.315 24.16 206.208 24.8933 206.208 26.36C206.208 27.0267 206.462 27.56 206.968 27.96C207.475 28.36 208.168 28.56 209.048 28.56ZM232.446 13.92C233.219 12.9333 234.219 12.2 235.446 11.72C236.699 11.2133 238.126 10.96 239.726 10.96V17.8C239.032 17.72 238.459 17.68 238.006 17.68C236.379 17.68 235.099 18.12 234.166 19C233.259 19.88 232.806 21.2267 232.806 23.04V33H225.206V11.32H232.446V13.92ZM271.102 10.96C273.769 10.96 275.889 11.76 277.462 13.36C279.062 14.96 279.862 17.3733 279.862 20.6V33H272.262V21.84C272.262 20.32 271.969 19.2 271.382 18.48C270.822 17.76 270.022 17.4 268.982 17.4C267.835 17.4 266.915 17.8 266.222 18.6C265.529 19.4 265.182 20.6133 265.182 22.24V33H257.582V21.84C257.582 18.88 256.489 17.4 254.302 17.4C253.129 17.4 252.195 17.8 251.502 18.6C250.809 19.4 250.462 20.6133 250.462 22.24V33H242.862V11.32H250.102V13.6C250.902 12.72 251.849 12.0667 252.942 11.64C254.062 11.1867 255.275 10.96 256.582 10.96C258.102 10.96 259.462 11.24 260.662 11.8C261.862 12.36 262.835 13.2133 263.582 14.36C264.435 13.2667 265.515 12.4267 266.822 11.84C268.129 11.2533 269.555 10.96 271.102 10.96ZM297.939 33.56C293.779 33.56 290.539 32.4267 288.219 30.16C285.925 27.8933 284.779 24.68 284.779 20.52V5H292.699V20.28C292.699 24.76 294.472 27 298.019 27C301.539 27 303.299 24.76 303.299 20.28V5H311.099V20.52C311.099 24.68 309.939 27.8933 307.619 30.16C305.325 32.4267 302.099 33.56 297.939 33.56ZM329.744 10.96C331.717 10.96 333.504 11.4267 335.104 12.36C336.731 13.2667 338.011 14.5733 338.944 16.28C339.904 17.96 340.384 19.92 340.384 22.16C340.384 24.4 339.904 26.3733 338.944 28.08C338.011 29.76 336.731 31.0667 335.104 32C333.504 32.9067 331.717 33.36 329.744 33.36C327.211 33.36 325.197 32.6 323.704 31.08V40.76H316.104V11.32H323.344V13.48C324.757 11.8 326.891 10.96 329.744 10.96ZM328.144 27.32C329.477 27.32 330.571 26.8667 331.424 25.96C332.277 25.0267 332.704 23.76 332.704 22.16C332.704 20.56 332.277 19.3067 331.424 18.4C330.571 17.4667 329.477 17 328.144 17C326.811 17 325.717 17.4667 324.864 18.4C324.011 19.3067 323.584 20.56 323.584 22.16C323.584 23.76 324.011 25.0267 324.864 25.96C325.717 26.8667 326.811 27.32 328.144 27.32Z" fill="black"/>
<path d="M146.804 33.36C145.524 33.36 144.444 32.9333 143.564 32.08C142.684 31.2267 142.244 30.1467 142.244 28.84C142.244 27.5067 142.671 26.4267 143.524 25.6C144.404 24.7733 145.497 24.36 146.804 24.36C148.137 24.36 149.231 24.7733 150.084 25.6C150.937 26.4267 151.364 27.5067 151.364 28.84C151.364 30.1467 150.924 31.2267 150.044 32.08C149.191 32.9333 148.111 33.36 146.804 33.36Z" fill="#FF9F1A"/>
</svg>
