<svg width="307" height="36" viewBox="0 0 307 36" fill="none" xmlns="http://www.w3.org/2000/svg">
<path d="M10.24 19.856L7.576 22.7V29H0.52V3.8H7.576V14.276L17.332 3.8H25.18L14.884 14.96L25.72 29H17.44L10.24 19.856ZM46.4369 19.28C46.4369 19.328 46.4009 19.892 46.3289 20.972H32.1449C32.4329 21.98 32.9849 22.76 33.8009 23.312C34.6409 23.84 35.6849 24.104 36.9329 24.104C37.8689 24.104 38.6729 23.972 39.3449 23.708C40.0409 23.444 40.7369 23.012 41.4329 22.412L45.0329 26.156C43.1369 28.268 40.3649 29.324 36.7169 29.324C34.4369 29.324 32.4329 28.892 30.7049 28.028C28.9769 27.164 27.6329 25.964 26.6729 24.428C25.7369 22.892 25.2689 21.152 25.2689 19.208C25.2689 17.288 25.7249 15.572 26.6369 14.06C27.5729 12.524 28.8569 11.324 30.4889 10.46C32.1209 9.596 33.9569 9.164 35.9969 9.164C37.9409 9.164 39.7049 9.572 41.2889 10.388C42.8729 11.18 44.1209 12.344 45.0329 13.88C45.9689 15.392 46.4369 17.192 46.4369 19.28ZM36.0329 14.024C34.9769 14.024 34.0889 14.324 33.3689 14.924C32.6729 15.524 32.2289 16.34 32.0369 17.372H40.0289C39.8369 16.34 39.3809 15.524 38.6609 14.924C37.9649 14.324 37.0889 14.024 36.0329 14.024ZM62.2985 9.164C64.7225 9.164 66.6665 9.884 68.1305 11.324C69.6185 12.764 70.3625 14.936 70.3625 17.84V29H63.5225V18.956C63.5225 16.292 62.4545 14.96 60.3185 14.96C59.1425 14.96 58.1945 15.344 57.4745 16.112C56.7785 16.88 56.4305 18.032 56.4305 19.568V29H49.5905V9.488H56.1065V11.612C56.8745 10.82 57.7865 10.22 58.8425 9.812C59.8985 9.38 61.0505 9.164 62.2985 9.164ZM91.6489 23.888V29H73.6489V24.968L82.6849 14.564H73.9009V9.488H91.2889V13.484L82.2529 23.888H91.6489ZM94.6608 9.488H101.501V29H94.6608V9.488ZM98.0808 7.328C96.8328 7.328 95.8248 6.98 95.0568 6.284C94.2888 5.588 93.9048 4.724 93.9048 3.692C93.9048 2.66 94.2888 1.796 95.0568 1.1C95.8248 0.403999 96.8328 0.0559993 98.0808 0.0559993C99.3288 0.0559993 100.337 0.391999 101.105 1.064C101.873 1.712 102.257 2.552 102.257 3.584C102.257 4.664 101.873 5.564 101.105 6.284C100.337 6.98 99.3288 7.328 98.0808 7.328ZM125.89 19.28C125.89 19.328 125.854 19.892 125.782 20.972H111.598C111.886 21.98 112.438 22.76 113.254 23.312C114.094 23.84 115.138 24.104 116.386 24.104C117.322 24.104 118.126 23.972 118.798 23.708C119.494 23.444 120.19 23.012 120.886 22.412L124.486 26.156C122.59 28.268 119.818 29.324 116.17 29.324C113.89 29.324 111.886 28.892 110.158 28.028C108.43 27.164 107.086 25.964 106.126 24.428C105.19 22.892 104.722 21.152 104.722 19.208C104.722 17.288 105.178 15.572 106.09 14.06C107.026 12.524 108.31 11.324 109.942 10.46C111.574 9.596 113.41 9.164 115.45 9.164C117.394 9.164 119.158 9.572 120.742 10.388C122.326 11.18 123.574 12.344 124.486 13.88C125.422 15.392 125.89 17.192 125.89 19.28ZM115.486 14.024C114.43 14.024 113.542 14.324 112.822 14.924C112.126 15.524 111.682 16.34 111.49 17.372H119.482C119.29 16.34 118.834 15.524 118.114 14.924C117.418 14.324 116.542 14.024 115.486 14.024ZM179.091 3.8L170.919 29H163.287L158.463 13.664L153.423 29H145.791L137.619 3.8H144.963L150.039 19.892L155.367 3.8H161.919L166.995 20.036L172.287 3.8H179.091ZM188.196 9.164C191.436 9.164 193.908 9.908 195.612 11.396C197.316 12.86 198.168 15.116 198.168 18.164V29H191.796V26.48C190.812 28.376 188.892 29.324 186.036 29.324C184.524 29.324 183.216 29.06 182.112 28.532C181.008 28.004 180.168 27.296 179.592 26.408C179.04 25.496 178.764 24.464 178.764 23.312C178.764 21.464 179.472 20.036 180.888 19.028C182.304 17.996 184.488 17.48 187.44 17.48H191.328C191.208 15.416 189.828 14.384 187.188 14.384C186.252 14.384 185.304 14.54 184.344 14.852C183.384 15.14 182.568 15.548 181.896 16.076L179.592 11.432C180.672 10.712 181.98 10.16 183.516 9.776C185.076 9.368 186.636 9.164 188.196 9.164ZM187.944 25.004C188.736 25.004 189.432 24.812 190.032 24.428C190.632 24.044 191.064 23.48 191.328 22.736V21.044H188.376C186.384 21.044 185.388 21.704 185.388 23.024C185.388 23.624 185.616 24.104 186.072 24.464C186.528 24.824 187.152 25.004 187.944 25.004ZM209.001 11.828C209.697 10.94 210.597 10.28 211.701 9.848C212.829 9.392 214.113 9.164 215.553 9.164V15.32C214.929 15.248 214.413 15.212 214.005 15.212C212.541 15.212 211.389 15.608 210.549 16.4C209.733 17.192 209.325 18.404 209.325 20.036V29H202.485V9.488H209.001V11.828ZM243.792 9.164C246.192 9.164 248.1 9.884 249.516 11.324C250.956 12.764 251.676 14.936 251.676 17.84V29H244.836V18.956C244.836 17.588 244.572 16.58 244.044 15.932C243.54 15.284 242.82 14.96 241.884 14.96C240.852 14.96 240.024 15.32 239.4 16.04C238.776 16.76 238.464 17.852 238.464 19.316V29H231.624V18.956C231.624 16.292 230.64 14.96 228.672 14.96C227.616 14.96 226.776 15.32 226.152 16.04C225.528 16.76 225.216 17.852 225.216 19.316V29H218.376V9.488H224.892V11.54C225.612 10.748 226.464 10.16 227.448 9.776C228.456 9.368 229.548 9.164 230.724 9.164C232.092 9.164 233.316 9.416 234.396 9.92C235.476 10.424 236.352 11.192 237.024 12.224C237.792 11.24 238.764 10.484 239.94 9.956C241.116 9.428 242.4 9.164 243.792 9.164ZM267.945 29.504C264.201 29.504 261.285 28.484 259.197 26.444C257.133 24.404 256.101 21.512 256.101 17.768V3.8H263.229V17.552C263.229 21.584 264.825 23.6 268.017 23.6C271.185 23.6 272.769 21.584 272.769 17.552V3.8H279.789V17.768C279.789 21.512 278.745 24.404 276.657 26.444C274.593 28.484 271.689 29.504 267.945 29.504ZM296.57 9.164C298.346 9.164 299.954 9.584 301.394 10.424C302.858 11.24 304.01 12.416 304.85 13.952C305.714 15.464 306.146 17.228 306.146 19.244C306.146 21.26 305.714 23.036 304.85 24.572C304.01 26.084 302.858 27.26 301.394 28.1C299.954 28.916 298.346 29.324 296.57 29.324C294.29 29.324 292.478 28.64 291.134 27.272V35.984H284.294V9.488H290.81V11.432C292.082 9.92 294.002 9.164 296.57 9.164ZM295.13 23.888C296.33 23.888 297.314 23.48 298.082 22.664C298.85 21.824 299.234 20.684 299.234 19.244C299.234 17.804 298.85 16.676 298.082 15.86C297.314 15.02 296.33 14.6 295.13 14.6C293.93 14.6 292.946 15.02 292.178 15.86C291.41 16.676 291.026 17.804 291.026 19.244C291.026 20.684 291.41 21.824 292.178 22.664C292.946 23.48 293.93 23.888 295.13 23.888Z" fill="white"/>
<path d="M131.924 29.324C130.772 29.324 129.8 28.94 129.008 28.172C128.216 27.404 127.82 26.432 127.82 25.256C127.82 24.056 128.204 23.084 128.972 22.34C129.764 21.596 130.748 21.224 131.924 21.224C133.124 21.224 134.108 21.596 134.876 22.34C135.644 23.084 136.028 24.056 136.028 25.256C136.028 26.432 135.632 27.404 134.84 28.172C134.072 28.94 133.1 29.324 131.924 29.324Z" fill="#FF9F1A"/>
</svg>
